<svg width="12" height="12" viewBox="0 0 12 12" fill="none" xmlns="http://www.w3.org/2000/svg">
<g id="Group 1000006465">
<path id="Vector" d="M6 0C2.68629 0 0 2.68629 0 6C0 9.31371 2.68629 12 6 12C9.31371 12 12 9.31371 12 6C12 2.68629 9.31371 0 6 0Z" fill="#F14B4B"/>
<path id="XMLID_732_" d="M8.43269 7.77899C8.61777 7.96425 8.61777 8.25244 8.43269 8.4377C8.34014 8.53033 8.22704 8.5715 8.10365 8.5715C7.98026 8.5715 7.86715 8.53033 7.77461 8.4377L5.89293 6.55421L4.01124 8.4377C3.9187 8.53033 3.8056 8.5715 3.68221 8.5715C3.55882 8.5715 3.44571 8.53033 3.35317 8.4377C3.16808 8.25244 3.16808 7.96425 3.35317 7.77899L5.23485 5.8955L3.35317 4.01201C3.16808 3.82675 3.16808 3.53856 3.35317 3.3533C3.53825 3.16804 3.82616 3.16804 4.01124 3.3533L5.89293 5.23679L7.77461 3.3533C7.9597 3.16804 8.2476 3.16804 8.43269 3.3533C8.61777 3.53856 8.61777 3.82675 8.43269 4.01201L6.551 5.8955L8.43269 7.77899Z" fill="white"/>
</g>
</svg>
