<svg width="40" height="40" viewBox="0 0 40 40" fill="none" xmlns="http://www.w3.org/2000/svg">
<g id="App-logo">
<circle id="bg" cx="20" cy="20" r="20" fill="white"/>
<g id="Symbol">
<path id="Vector" fill-rule="evenodd" clip-rule="evenodd" d="M12.2993 19.8529C12.2993 21.3621 12.4105 22.3928 13.0777 23.718C13.3371 24.2701 13.7819 24.9695 14.1896 25.448C14.8568 26.221 15.9688 27.1413 16.9324 27.5462C18.1556 28.0247 18.8598 28.2456 20.2683 28.2456C22.2327 28.2456 23.7895 27.5094 24.9385 26.6627C26.4581 25.5216 27.533 23.8284 27.9407 21.9143C28.0519 21.3989 28.0519 21.0677 28.089 20.4787C28.089 20.2946 28.089 20.2946 28.089 20.1842C28.089 20.0738 28.089 19.9634 28.089 19.8529C28.089 19.5216 28.089 19.4112 28.0519 19.1535C27.8296 17.4603 27.1253 16.1351 26.0504 14.8468C25.9022 14.6996 25.3833 14.1106 25.1979 14.1106C24.7161 14.1106 24.3825 14.5155 24.3825 15.1045C24.3825 15.4357 24.9755 15.8407 25.1609 16.0983L25.8651 17.129C26.5693 18.3069 26.6435 19.3744 26.6435 20.7364C26.6435 21.6198 26.3099 22.5032 26.0134 23.129C25.791 23.718 25.1609 24.491 24.7532 24.9327C24.1972 25.4848 23.7524 25.8161 22.974 26.1842C21.3061 27.0308 19.1193 27.0308 17.4514 26.1842C16.4506 25.6689 16.0058 25.264 15.3016 24.491C14.4491 23.5707 13.819 21.8775 13.819 20.5891C13.819 19.1535 13.9302 18.491 14.5973 17.2026C15.3757 15.6566 16.0799 15.7302 16.0799 14.9572C16.0799 14.4787 15.5981 14.1474 15.2645 14.1474C15.0421 14.1474 14.5603 14.6996 14.412 14.8836C13.9672 15.4357 13.7078 15.6198 13.263 16.5032C12.707 17.4603 12.2993 18.6014 12.2993 19.8529Z" fill="#F47920"/>
<path id="Vector_2" fill-rule="evenodd" clip-rule="evenodd" d="M19.3789 8.69939V19.8528C19.3789 20.9939 20.9727 20.8466 20.9727 19.9632V8.77301C20.9727 8.29448 20.6762 8.03681 20.3426 8H20.1202C19.7125 8.03681 19.3789 8.29448 19.3789 8.69939Z" fill="#7D7E81"/>
<path id="Vector_3" fill-rule="evenodd" clip-rule="evenodd" d="M8 20.2944C8 20.6994 8.03706 21.1779 8.77836 21.1779C10.3722 21.1779 11.0393 21.3987 11.0393 20.2944C11.0393 19.4846 9.63086 19.7055 8.7413 19.7055C8.33358 19.6687 8 19.9263 8 20.2944Z" fill="#F47920"/>
<path id="Vector_4" fill-rule="evenodd" clip-rule="evenodd" d="M11.2988 12.0493C11.2988 12.6014 12.0031 13.1168 12.559 13.6321C12.8556 13.9266 12.8556 14.0002 13.3003 14.0002C13.6339 14.0002 13.9675 13.5953 13.9675 13.3008C13.9675 12.8591 13.115 12.1597 12.7073 11.7548C12.4108 11.4603 12.4108 11.3867 11.966 11.3867C11.5953 11.3867 11.2988 11.7548 11.2988 12.0493Z" fill="#F47920"/>
<path id="Vector_5" fill-rule="evenodd" clip-rule="evenodd" d="M11.2246 28.4663C11.2246 28.9448 11.5211 29.2761 11.9288 29.2761C12.2254 29.2761 12.4478 29.0184 12.7813 28.7608C13.4114 28.2086 14.2639 27.546 13.6709 26.9203C13.4114 26.6626 13.4114 26.6626 13.0408 26.6626C12.6701 26.6626 12.0771 27.5092 11.5953 27.8773C11.447 28.0246 11.2246 28.2086 11.2246 28.4663Z" fill="#F47920"/>
<path id="Vector_6" fill-rule="evenodd" clip-rule="evenodd" d="M26.2358 13.3376C26.2358 13.6321 26.5324 14.037 27.0142 14.037C27.4219 14.037 28.8675 12.5646 28.8675 12.1229C28.8675 11.7548 28.5709 11.4971 28.2744 11.3867C27.9038 11.2763 27.6443 11.6075 27.4219 11.8284C27.1995 12.0493 26.9771 12.2701 26.7547 12.491C26.5694 12.7486 26.2358 12.9695 26.2358 13.3376Z" fill="#F47920"/>
<path id="Vector_7" fill-rule="evenodd" clip-rule="evenodd" d="M29.1641 20.405C29.1641 20.7731 29.4606 21.1043 29.8312 21.1043H31.6474C32.3887 21.1043 32.4999 19.8528 31.7586 19.7056C31.5362 19.6688 30.9061 19.7056 30.6096 19.7056C30.2389 19.7056 29.9424 19.5951 29.6459 19.7056C29.3865 19.816 29.1641 20.0737 29.1641 20.405Z" fill="#F47920"/>
<path id="Vector_8" fill-rule="evenodd" clip-rule="evenodd" d="M26.2358 27.4358C26.2358 27.9143 26.31 27.8407 26.5694 28.1352L27.6443 29.3131C28.2373 29.7916 29.1269 29.0554 28.6821 28.356L27.7926 27.3622C27.459 27.0309 27.459 26.7732 26.903 26.7732C26.5694 26.7732 26.2358 27.1045 26.2358 27.4358Z" fill="#F47920"/>
<path id="Vector_9" fill-rule="evenodd" clip-rule="evenodd" d="M19.4902 31.3006C19.4902 31.7424 19.7497 31.9632 20.0462 32H20.2686C20.5281 31.9632 20.7875 31.7792 20.8246 31.5215C20.8987 30.9326 20.8987 30.27 20.8987 29.681C20.8987 29.1289 20.0833 28.908 19.7126 29.3497C19.4902 29.6074 19.6385 29.8651 19.6014 30.27C19.4902 30.6013 19.4902 30.8957 19.4902 31.3006Z" fill="#F47920"/>
</g>
</g>
</svg>
